<svg xmlns="http://www.w3.org/2000/svg" xmlns:xlink="http://www.w3.org/1999/xlink" width="500" zoomAndPan="magnify" viewBox="0 0 375 374.999991" height="500" preserveAspectRatio="xMidYMid meet" version="1.0"><defs><g/><clipPath id="f7d5e834cd"><path d="M 134 112 L 240.976562 112 L 240.976562 215 L 134 215 Z M 134 112 " clip-rule="nonzero"/></clipPath></defs><path fill="#1c486f" d="M 164.632812 106.628906 C 166.613281 106.628906 168.222656 105.023438 168.222656 103.042969 L 168.222656 96.089844 C 168.222656 87.101562 175.542969 79.78125 184.558594 79.78125 C 193.578125 79.78125 200.898438 87.101562 200.898438 96.089844 L 200.898438 103.042969 C 200.898438 105.023438 202.507812 106.628906 204.488281 106.628906 C 206.472656 106.628906 208.078125 105.023438 208.078125 103.042969 L 208.078125 97.066406 C 208.078125 84.519531 198.660156 73.492188 186.109375 72.660156 C 172.472656 71.769531 161.042969 82.625 161.042969 96.089844 L 161.042969 103.042969 C 161.042969 105.023438 162.648438 106.628906 164.632812 106.628906 Z M 164.632812 106.628906 " fill-opacity="1" fill-rule="nonzero"/><g clip-path="url(#f7d5e834cd)"><path fill="#ef8121" d="M 240.128906 199.960938 L 232.230469 123.144531 C 231.597656 117.027344 226.457031 112.402344 220.3125 112.402344 L 148.808594 112.402344 C 142.664062 112.402344 137.523438 117.054688 136.890625 123.144531 L 134.910156 142.269531 C 133.589844 155.105469 145.792969 165.125 158.113281 161.363281 L 164.804688 159.324219 C 172.414062 157 180.914062 160.847656 183.898438 169.289062 C 184.933594 172.21875 184.789062 175.4375 183.871094 178.421875 L 180.914062 188.070312 C 176.835938 201.394531 186.800781 214.863281 200.726562 214.863281 L 226.6875 214.863281 C 234.699219 214.835938 240.960938 207.914062 240.128906 199.960938 Z M 240.128906 199.960938 " fill-opacity="1" fill-rule="nonzero"/></g><path fill="#1c486f" d="M 167.332031 167.539062 L 128.648438 179.339844 C 123.019531 181.0625 122.617188 188.875 128.046875 191.171875 L 137.265625 195.050781 C 142.144531 197.117188 146.050781 200.992188 148.117188 205.902344 L 151.996094 215.121094 C 154.292969 220.550781 162.105469 220.148438 163.828125 214.519531 L 175.628906 175.835938 C 177.210938 170.753906 172.441406 165.988281 167.332031 167.539062 Z M 167.332031 167.539062 " fill-opacity="1" fill-rule="nonzero"/><g fill="#ef8121" fill-opacity="0.4"><g transform="translate(99.479862, 275.5276)"><g><path d="M 6.21875 0 L 6.21875 -38.578125 L 0.5625 -38.578125 L 0.5625 -47.75 L 21.453125 -47.75 L 21.453125 -38.578125 L 15.78125 -38.578125 L 15.78125 0 Z M 6.21875 0 "/></g></g></g><g fill="#ef8121" fill-opacity="0.4"><g transform="translate(121.490328, 275.5276)"><g><path d="M 13.78125 0.4375 C 5.664062 0.4375 1.609375 -3.765625 1.609375 -12.171875 L 1.609375 -28.515625 C 1.609375 -32.367188 2.691406 -35.4375 4.859375 -37.71875 C 7.023438 -40 10 -41.140625 13.78125 -41.140625 C 17.5625 -41.140625 20.535156 -40 22.703125 -37.71875 C 24.878906 -35.4375 25.96875 -32.367188 25.96875 -28.515625 L 25.96875 -12.171875 C 25.96875 -3.765625 21.90625 0.4375 13.78125 0.4375 Z M 13.78125 -7.0625 C 14.5625 -7.0625 15.132812 -7.335938 15.5 -7.890625 C 15.875 -8.453125 16.0625 -9.210938 16.0625 -10.171875 L 16.0625 -30.078125 C 16.0625 -32.453125 15.300781 -33.640625 13.78125 -33.640625 C 12.269531 -33.640625 11.515625 -32.453125 11.515625 -30.078125 L 11.515625 -10.171875 C 11.515625 -9.210938 11.695312 -8.453125 12.0625 -7.890625 C 12.4375 -7.335938 13.007812 -7.0625 13.78125 -7.0625 Z M 13.78125 -7.0625 "/></g></g></g><g fill="#ef8121" fill-opacity="0.4"><g transform="translate(149.114579, 275.5276)"><g><path d="M 1.953125 -40.6875 L 11.671875 -40.6875 L 11.671875 -36.1875 C 12.148438 -37.78125 12.992188 -39.007812 14.203125 -39.875 C 15.410156 -40.75 16.898438 -41.1875 18.671875 -41.1875 L 18.671875 -33.078125 C 17.304688 -33.078125 15.796875 -32.878906 14.140625 -32.484375 C 12.492188 -32.097656 11.671875 -31.644531 11.671875 -31.125 L 11.671875 0 L 1.953125 0 Z M 1.953125 -40.6875 "/></g></g></g><g fill="#ef8121" fill-opacity="0.4"><g transform="translate(168.234783, 275.5276)"><g><path d="M 1.953125 -48.03125 L 11.953125 -48.03125 L 11.953125 -36.6875 C 12.992188 -39.65625 14.976562 -41.140625 17.90625 -41.140625 C 20.644531 -41.140625 22.71875 -40.265625 24.125 -38.515625 C 25.53125 -36.773438 26.234375 -34.390625 26.234375 -31.359375 L 26.234375 0 L 16.515625 0 L 16.515625 -30.75 C 16.515625 -31.632812 16.304688 -32.351562 15.890625 -32.90625 C 15.484375 -33.46875 14.894531 -33.75 14.125 -33.75 C 13.457031 -33.75 12.925781 -33.457031 12.53125 -32.875 C 12.144531 -32.300781 11.953125 -31.609375 11.953125 -30.796875 L 11.953125 0 L 1.953125 0 Z M 1.953125 -48.03125 "/></g></g></g><g fill="#ef8121" fill-opacity="1"><g transform="translate(99.479862, 275.5276)"><g><path d="M 6.21875 0 L 6.21875 -38.578125 L 0.5625 -38.578125 L 0.5625 -47.75 L 21.453125 -47.75 L 21.453125 -38.578125 L 15.78125 -38.578125 L 15.78125 0 Z M 6.21875 0 "/></g></g></g><g fill="#ef8121" fill-opacity="1"><g transform="translate(121.490328, 275.5276)"><g><path d="M 13.78125 0.4375 C 5.664062 0.4375 1.609375 -3.765625 1.609375 -12.171875 L 1.609375 -28.515625 C 1.609375 -32.367188 2.691406 -35.4375 4.859375 -37.71875 C 7.023438 -40 10 -41.140625 13.78125 -41.140625 C 17.5625 -41.140625 20.535156 -40 22.703125 -37.71875 C 24.878906 -35.4375 25.96875 -32.367188 25.96875 -28.515625 L 25.96875 -12.171875 C 25.96875 -3.765625 21.90625 0.4375 13.78125 0.4375 Z M 13.78125 -7.0625 C 14.5625 -7.0625 15.132812 -7.335938 15.5 -7.890625 C 15.875 -8.453125 16.0625 -9.210938 16.0625 -10.171875 L 16.0625 -30.078125 C 16.0625 -32.453125 15.300781 -33.640625 13.78125 -33.640625 C 12.269531 -33.640625 11.515625 -32.453125 11.515625 -30.078125 L 11.515625 -10.171875 C 11.515625 -9.210938 11.695312 -8.453125 12.0625 -7.890625 C 12.4375 -7.335938 13.007812 -7.0625 13.78125 -7.0625 Z M 13.78125 -7.0625 "/></g></g></g><g fill="#ef8121" fill-opacity="1"><g transform="translate(149.114579, 275.5276)"><g><path d="M 1.953125 -40.6875 L 11.671875 -40.6875 L 11.671875 -36.1875 C 12.148438 -37.78125 12.992188 -39.007812 14.203125 -39.875 C 15.410156 -40.75 16.898438 -41.1875 18.671875 -41.1875 L 18.671875 -33.078125 C 17.304688 -33.078125 15.796875 -32.878906 14.140625 -32.484375 C 12.492188 -32.097656 11.671875 -31.644531 11.671875 -31.125 L 11.671875 0 L 1.953125 0 Z M 1.953125 -40.6875 "/></g></g></g><g fill="#ef8121" fill-opacity="1"><g transform="translate(168.234783, 275.5276)"><g><path d="M 1.953125 -48.03125 L 11.953125 -48.03125 L 11.953125 -36.6875 C 12.992188 -39.65625 14.976562 -41.140625 17.90625 -41.140625 C 20.644531 -41.140625 22.71875 -40.265625 24.125 -38.515625 C 25.53125 -36.773438 26.234375 -34.390625 26.234375 -31.359375 L 26.234375 0 L 16.515625 0 L 16.515625 -30.75 C 16.515625 -31.632812 16.304688 -32.351562 15.890625 -32.90625 C 15.484375 -33.46875 14.894531 -33.75 14.125 -33.75 C 13.457031 -33.75 12.925781 -33.457031 12.53125 -32.875 C 12.144531 -32.300781 11.953125 -31.609375 11.953125 -30.796875 L 11.953125 0 L 1.953125 0 Z M 1.953125 -48.03125 "/></g></g></g><g fill="#1c486f" fill-opacity="1"><g transform="translate(205.550163, 275.5276)"><g><path d="M 2.109375 0 L 2.109375 -47.75 L 16.671875 -47.75 L 20.6875 -18.625 L 24.6875 -47.75 L 39.359375 -47.75 L 39.359375 0 L 30.625 0 L 30.625 -34.40625 L 25.125 0 L 16.5625 0 L 10.734375 -34.40625 L 10.734375 0 Z M 2.109375 0 "/></g></g></g><g fill="#1c486f" fill-opacity="1"><g transform="translate(247.014325, 275.5276)"><g><path d="M 0.828125 0 L 5.453125 -47.75 L 21.625 -47.75 L 26.1875 0 L 17.125 0 L 16.453125 -7.734375 L 10.671875 -7.734375 L 10.125 0 Z M 11.390625 -15.34375 L 15.734375 -15.34375 L 13.625 -39.640625 L 13.171875 -39.640625 Z M 11.390625 -15.34375 "/></g></g></g><g fill="#1c486f" fill-opacity="1"><g transform="translate(273.971591, 275.5276)"><g><path d="M 2.109375 -47.75 L 16.796875 -47.75 C 19.128906 -47.75 20.929688 -47.222656 22.203125 -46.171875 C 23.484375 -45.117188 24.347656 -43.632812 24.796875 -41.71875 C 25.242188 -39.8125 25.46875 -37.375 25.46875 -34.40625 C 25.46875 -31.707031 25.113281 -29.597656 24.40625 -28.078125 C 23.695312 -26.554688 22.472656 -25.5 20.734375 -24.90625 C 22.179688 -24.613281 23.226562 -23.890625 23.875 -22.734375 C 24.519531 -21.585938 24.84375 -20.03125 24.84375 -18.0625 L 24.734375 0 L 15.40625 0 L 15.40625 -18.671875 C 15.40625 -20.015625 15.144531 -20.867188 14.625 -21.234375 C 14.101562 -21.609375 13.15625 -21.796875 11.78125 -21.796875 L 11.78125 0 L 2.109375 0 Z M 14.125 -30.078125 C 15.457031 -30.078125 16.125 -31.519531 16.125 -34.40625 C 16.125 -35.664062 16.066406 -36.609375 15.953125 -37.234375 C 15.835938 -37.867188 15.632812 -38.304688 15.34375 -38.546875 C 15.050781 -38.796875 14.625 -38.921875 14.0625 -38.921875 L 11.84375 -38.921875 L 11.84375 -30.078125 Z M 14.125 -30.078125 "/></g></g></g><g fill="#1c486f" fill-opacity="1"><g transform="translate(300.484197, 275.5276)"><g><path d="M 6.21875 0 L 6.21875 -38.578125 L 0.5625 -38.578125 L 0.5625 -47.75 L 21.453125 -47.75 L 21.453125 -38.578125 L 15.78125 -38.578125 L 15.78125 0 Z M 6.21875 0 "/></g></g></g><g fill="#424141" fill-opacity="1"><g transform="translate(139.770588, 299.313964)"><g><path d="M 1.421875 0 L 5.40625 0 C 7.375 0 8.609375 -1.046875 8.609375 -2.75 C 8.609375 -3.84375 8.0625 -4.671875 7.0625 -5.078125 C 7.859375 -5.484375 8.328125 -6.25 8.328125 -7.203125 C 8.328125 -8.78125 7.09375 -9.796875 5.21875 -9.796875 L 1.421875 -9.796875 Z M 2.65625 -1.140625 L 2.65625 -4.4375 L 5.359375 -4.4375 C 6.640625 -4.4375 7.34375 -3.84375 7.34375 -2.796875 C 7.34375 -1.75 6.640625 -1.140625 5.375 -1.140625 Z M 2.65625 -5.5625 L 2.65625 -8.65625 L 5.1875 -8.65625 C 6.390625 -8.65625 7.0625 -8.09375 7.0625 -7.09375 C 7.0625 -6.125 6.390625 -5.5625 5.1875 -5.5625 Z M 2.65625 -5.5625 "/></g></g></g><g fill="#424141" fill-opacity="1"><g transform="translate(149.159343, 299.313964)"><g><path d="M 1.421875 0 L 7.53125 0 L 7.53125 -1.140625 L 2.65625 -1.140625 L 2.65625 -4.421875 L 7.03125 -4.421875 L 7.03125 -5.5625 L 2.65625 -5.5625 L 2.65625 -8.65625 L 7.375 -8.65625 L 7.375 -9.796875 L 1.421875 -9.796875 Z M 1.421875 0 "/></g></g></g><g fill="#424141" fill-opacity="1"><g transform="translate(157.596636, 299.313964)"><g/></g></g><g fill="#424141" fill-opacity="1"><g transform="translate(161.066702, 299.313964)"><g><path d="M 1.421875 0 L 2.65625 0 L 2.65625 -3.21875 L 4.75 -3.21875 C 6.953125 -3.21875 8.390625 -4.5 8.390625 -6.515625 C 8.390625 -8.515625 6.953125 -9.796875 4.75 -9.796875 L 1.421875 -9.796875 Z M 2.65625 -4.375 L 2.65625 -8.625 L 4.71875 -8.625 C 6.296875 -8.625 7.125 -7.890625 7.125 -6.5 C 7.125 -5.09375 6.296875 -4.375 4.71875 -4.375 Z M 2.65625 -4.375 "/></g></g></g><g fill="#424141" fill-opacity="1"><g transform="translate(170.007707, 299.313964)"><g><path d="M 1.421875 0 L 2.65625 0 L 2.65625 -3.515625 L 4.8125 -3.515625 L 7.203125 0 L 8.6875 0 L 6.234375 -3.640625 C 7.65625 -3.984375 8.546875 -5.0625 8.546875 -6.65625 C 8.546875 -8.59375 7.203125 -9.796875 5.171875 -9.796875 L 1.421875 -9.796875 Z M 2.65625 -4.6875 L 2.65625 -8.625 L 5.03125 -8.625 C 6.453125 -8.625 7.28125 -7.890625 7.28125 -6.65625 C 7.28125 -5.40625 6.453125 -4.6875 5.03125 -4.6875 Z M 2.65625 -4.6875 "/></g></g></g><g fill="#424141" fill-opacity="1"><g transform="translate(179.536389, 299.313964)"><g><path d="M 1.421875 0 L 7.53125 0 L 7.53125 -1.140625 L 2.65625 -1.140625 L 2.65625 -4.421875 L 7.03125 -4.421875 L 7.03125 -5.5625 L 2.65625 -5.5625 L 2.65625 -8.65625 L 7.375 -8.65625 L 7.375 -9.796875 L 1.421875 -9.796875 Z M 1.421875 0 "/></g></g></g><g fill="#424141" fill-opacity="1"><g transform="translate(187.973683, 299.313964)"><g><path d="M 1.421875 0 L 2.65625 0 L 2.65625 -3.21875 L 4.75 -3.21875 C 6.953125 -3.21875 8.390625 -4.5 8.390625 -6.515625 C 8.390625 -8.515625 6.953125 -9.796875 4.75 -9.796875 L 1.421875 -9.796875 Z M 2.65625 -4.375 L 2.65625 -8.625 L 4.71875 -8.625 C 6.296875 -8.625 7.125 -7.890625 7.125 -6.5 C 7.125 -5.09375 6.296875 -4.375 4.71875 -4.375 Z M 2.65625 -4.375 "/></g></g></g><g fill="#424141" fill-opacity="1"><g transform="translate(196.914688, 299.313964)"><g><path d="M 0.234375 0 L 1.546875 0 L 2.453125 -2.21875 L 7.21875 -2.21875 L 8.140625 0 L 9.453125 0 L 5.421875 -9.796875 L 4.265625 -9.796875 Z M 2.921875 -3.375 L 4.84375 -8.078125 L 6.765625 -3.375 Z M 2.921875 -3.375 "/></g></g></g><g fill="#424141" fill-opacity="1"><g transform="translate(206.597281, 299.313964)"><g><path d="M 1.421875 0 L 2.65625 0 L 2.65625 -3.515625 L 4.8125 -3.515625 L 7.203125 0 L 8.6875 0 L 6.234375 -3.640625 C 7.65625 -3.984375 8.546875 -5.0625 8.546875 -6.65625 C 8.546875 -8.59375 7.203125 -9.796875 5.171875 -9.796875 L 1.421875 -9.796875 Z M 2.65625 -4.6875 L 2.65625 -8.625 L 5.03125 -8.625 C 6.453125 -8.625 7.28125 -7.890625 7.28125 -6.65625 C 7.28125 -5.40625 6.453125 -4.6875 5.03125 -4.6875 Z M 2.65625 -4.6875 "/></g></g></g><g fill="#424141" fill-opacity="1"><g transform="translate(216.125963, 299.313964)"><g><path d="M 1.421875 0 L 7.53125 0 L 7.53125 -1.140625 L 2.65625 -1.140625 L 2.65625 -4.421875 L 7.03125 -4.421875 L 7.03125 -5.5625 L 2.65625 -5.5625 L 2.65625 -8.65625 L 7.375 -8.65625 L 7.375 -9.796875 L 1.421875 -9.796875 Z M 1.421875 0 "/></g></g></g><g fill="#424141" fill-opacity="1"><g transform="translate(224.563257, 299.313964)"><g><path d="M 1.421875 0 L 4.8125 0 C 7.828125 0 9.84375 -2 9.84375 -4.90625 C 9.84375 -7.796875 7.828125 -9.796875 4.8125 -9.796875 L 1.421875 -9.796875 Z M 2.65625 -1.171875 L 2.65625 -8.625 L 4.765625 -8.625 C 7.046875 -8.625 8.578125 -7.125 8.578125 -4.90625 C 8.578125 -2.671875 7.0625 -1.171875 4.8125 -1.171875 Z M 2.65625 -1.171875 "/></g></g></g></svg>